<svg width="186" height="186" viewBox="0 0 186 186" fill="none" xmlns="http://www.w3.org/2000/svg">
<rect x="0.692749" y="0.803589" width="184.393" height="184.393" rx="40" fill="#FF1919"/>
<rect width="40.681" height="40.681" rx="9" transform="matrix(-1 0 0 1 113.23 72.6595)" fill="white"/>
<rect width="40.681" height="40.681" rx="9" transform="matrix(-1 0 0 1 113.23 118.529)" fill="white" fill-opacity="0.5"/>
<rect width="40.681" height="40.681" rx="9" transform="matrix(-1 0 0 1 113.23 26.7895)" fill="white"/>
<rect width="40.681" height="40.681" rx="9" transform="matrix(-1 0 0 1 67.7185 72.6595)" fill="white"/>
<rect width="40.681" height="40.681" rx="9" transform="matrix(-1 0 0 1 67.7185 118.529)" fill="white"/>
<rect width="40.681" height="40.681" rx="9" transform="matrix(-1 0 0 1 67.7185 26.7895)" fill="white"/>
<rect width="40.681" height="40.681" rx="9" transform="matrix(-1 0 0 1 158.741 72.6595)" fill="white" fill-opacity="0.5"/>
<rect width="40.681" height="40.681" rx="9" transform="matrix(-1 0 0 1 158.741 118.529)" fill="white" fill-opacity="0.5"/>
<rect width="40.681" height="40.681" rx="9" transform="matrix(-1 0 0 1 158.741 26.7895)" fill="white" fill-opacity="0.5"/>
</svg>
